HIERARCHY
ROOT newVegas:Hips
{
	OFFSET 0.000000 96.479958 0.000000
	CHANNELS 6 Xposition Yposition Zposition Xrotation Yrotation Zrotation
	JOINT newVegas:Pelvis
	{
		OFFSET 0.000000 0.000000 0.000000
		CHANNELS 3 Xrotation Yrotation Zrotation
		JOINT newVegas:LeftUpLeg
		{
			OFFSET 18.735201 -5.666702 -4.541200
			CHANNELS 3 Xrotation Yrotation Zrotation
			JOINT newVegas:LeftLeg
			{
				OFFSET -0.021200 -31.938179 0.493100
				CHANNELS 3 Xrotation Yrotation Zrotation
				JOINT newVegas:LeftFoot
				{
					OFFSET 0.021200 -31.938179 -4.336299
					CHANNELS 3 Xrotation Yrotation Zrotation
					JOINT newVegas:LeftToeBase
					{
						OFFSET 0.943001 -26.722000 15.023500
						CHANNELS 3 Xrotation Yrotation Zrotation
						End Site
						{
							OFFSET 0.000000 30.670183 0.000000
						}
					}
				}
				JOINT newVegas:Left_PantLeg
				{
					OFFSET 0.663870 -9.044666 -1.108900
					CHANNELS 3 Xrotation Yrotation Zrotation
					End Site
					{
						OFFSET 1.415995 20.635357 0.000000
					}
				}
			}
		}
		JOINT newVegas:RightUpLeg
		{
			OFFSET -18.735201 -5.666702 -4.541200
			CHANNELS 3 Xrotation Yrotation Zrotation
			JOINT newVegas:RightLeg
			{
				OFFSET 0.018946 -31.938133 0.493100
				CHANNELS 3 Xrotation Yrotation Zrotation
				JOINT newVegas:RightFoot
				{
					OFFSET -0.018946 -31.938126 -4.336299
					CHANNELS 3 Xrotation Yrotation Zrotation
					JOINT newVegas:RightToeBase
					{
						OFFSET -0.943001 -26.722004 15.023500
						CHANNELS 3 Xrotation Yrotation Zrotation
						End Site
						{
							OFFSET 0.000000 30.670187 0.000000
						}
					}
				}
				JOINT newVegas:Right_PantLeg
				{
					OFFSET -0.661674 -9.044716 -1.108900
					CHANNELS 3 Xrotation Yrotation Zrotation
					End Site
					{
						OFFSET -1.415958 20.635269 0.000000
					}
				}
			}
		}
	}
	JOINT newVegas:Spine
	{
		OFFSET 0.000000 10.199997 -0.299500
		CHANNELS 3 Xrotation Yrotation Zrotation
		JOINT newVegas:Spine1
		{
			OFFSET 0.000000 11.900002 -1.516600
			CHANNELS 3 Xrotation Yrotation Zrotation
			JOINT newVegas:Spine2
			{
				OFFSET 0.000000 13.600006 -2.842500
				CHANNELS 3 Xrotation Yrotation Zrotation
				JOINT newVegas:Neck
				{
					OFFSET 0.000000 9.624100 -2.890100
					CHANNELS 3 Xrotation Yrotation Zrotation
					JOINT newVegas:Head
					{
						OFFSET 0.000000 14.068802 -1.351900
						CHANNELS 3 Xrotation Yrotation Zrotation
						JOINT newVegas:Hair_Back
						{
							OFFSET 0.000000 3.231903 -17.524799
							CHANNELS 3 Xrotation Yrotation Zrotation
							End Site
							{
								OFFSET 0.000000 19.849884 0.000000
							}
						}
						JOINT newVegas:Hair_Front
						{
							OFFSET 0.000000 31.260406 4.573800
							CHANNELS 3 Xrotation Yrotation Zrotation
							JOINT newVegas:Hair_Front1
							{
								OFFSET 0.000000 2.284103 11.993300
								CHANNELS 3 Xrotation Yrotation Zrotation
								JOINT newVegas:Hair_Front2
								{
									OFFSET 0.000000 2.284103 11.993300
									CHANNELS 3 Xrotation Yrotation Zrotation
									End Site
									{
										OFFSET 0.000000 12.208862 0.000000
									}
								}
							}
						}
						JOINT newVegas:Jowel
						{
							OFFSET 0.000000 -7.458206 6.864100
							CHANNELS 3 Xrotation Yrotation Zrotation
							End Site
							{
								OFFSET 0.000000 19.849884 0.000000
							}
						}
					}
				}
				JOINT newVegas:LeftShoulder
				{
					OFFSET 15.263000 10.923401 -0.547700
					CHANNELS 3 Xrotation Yrotation Zrotation
					JOINT newVegas:LeftArm
					{
						OFFSET 25.438599 -2.830597 -13.032500
						CHANNELS 3 Xrotation Yrotation Zrotation
						JOINT newVegas:LeftForeArm
						{
							OFFSET 29.960503 0.000000 0.000000
							CHANNELS 3 Xrotation Yrotation Zrotation
							JOINT newVegas:LeftHand
							{
								OFFSET 27.849251 0.000000 0.000000
								CHANNELS 3 Xrotation Yrotation Zrotation
								JOINT newVegas:LeftHandThumb1
								{
									OFFSET 4.487587 -3.305161 6.305391
									CHANNELS 3 Xrotation Yrotation Zrotation
									JOINT newVegas:LeftHandThumb2
									{
										OFFSET 5.480453 -3.164139 3.164143
										CHANNELS 3 Xrotation Yrotation Zrotation
										JOINT newVegas:LeftHandThumb3
										{
											OFFSET 5.159721 -2.978973 2.978967
											CHANNELS 3 Xrotation Yrotation Zrotation
											End Site
											{
												OFFSET 2.494507 5.926697 1.738678
											}
										}
									}
								}
								JOINT newVegas:LeftHandIndex1
								{
									OFFSET 18.578728 -0.527832 5.208049
									CHANNELS 3 Xrotation Yrotation Zrotation
									JOINT newVegas:LeftHandIndex2
									{
										OFFSET 3.192009 0.000000 0.000000
										CHANNELS 3 Xrotation Yrotation Zrotation
										JOINT newVegas:LeftHandIndex3
										{
											OFFSET 3.835129 0.000000 0.000000
											CHANNELS 3 Xrotation Yrotation Zrotation
											End Site
											{
												OFFSET -0.034599 3.816971 0.371180
											}
										}
									}
								}
								JOINT newVegas:LeftHandMiddle1
								{
									OFFSET 18.476105 0.000000 0.000000
									CHANNELS 3 Xrotation Yrotation Zrotation
									JOINT newVegas:LeftHandMiddle2
									{
										OFFSET 3.324875 0.000000 0.000000
										CHANNELS 3 Xrotation Yrotation Zrotation
										JOINT newVegas:LeftHandMiddle3
										{
											OFFSET 4.596550 0.000000 0.000000
											CHANNELS 3 Xrotation Yrotation Zrotation
											End Site
											{
												OFFSET 0.057701 4.578827 0.399218
											}
										}
									}
								}
								JOINT newVegas:LeftHandRing1
								{
									OFFSET 17.732719 0.121887 -4.201567
									CHANNELS 3 Xrotation Yrotation Zrotation
									JOINT newVegas:LeftHandRing2
									{
										OFFSET 2.733170 0.000000 0.000000
										CHANNELS 3 Xrotation Yrotation Zrotation
										JOINT newVegas:LeftHandRing3
										{
											OFFSET 3.178268 0.000000 0.000000
											CHANNELS 3 Xrotation Yrotation Zrotation
											End Site
											{
												OFFSET 0.119102 3.170624 0.185394
											}
										}
									}
								}
								JOINT newVegas:LeftHandPinky1
								{
									OFFSET 15.989624 -0.606689 -7.535461
									CHANNELS 3 Xrotation Yrotation Zrotation
									JOINT newVegas:LeftHandPinky2
									{
										OFFSET 2.538986 0.000000 0.000000
										CHANNELS 3 Xrotation Yrotation Zrotation
										JOINT newVegas:LeftHandPinky3
										{
											OFFSET 2.593102 0.000000 0.000000
											CHANNELS 3 Xrotation Yrotation Zrotation
											End Site
											{
												OFFSET -0.150902 2.584198 0.152708
											}
										}
									}
								}
							}
							JOINT newVegas:Left_Sleeve
							{
								OFFSET 0.267448 -0.649796 0.577675
								CHANNELS 3 Xrotation Yrotation Zrotation
								End Site
								{
									OFFSET 0.000000 15.991241 0.000000
								}
							}
							JOINT newVegas:Left_CapeC
							{
								OFFSET 15.715958 -8.608795 -6.935905
								CHANNELS 3 Xrotation Yrotation Zrotation
								JOINT newVegas:Left_CapeC1
								{
									OFFSET 0.000000 -8.688499 0.000000
									CHANNELS 3 Xrotation Yrotation Zrotation
									End Site
									{
										OFFSET 0.000000 8.688499 0.000000
									}
								}
							}
						}
						JOINT newVegas:Left_CapeB
						{
							OFFSET 26.118385 -8.608795 -7.079235
							CHANNELS 3 Xrotation Yrotation Zrotation
							JOINT newVegas:Left_CapeB1
							{
								OFFSET 0.000000 -8.688499 0.000000
								CHANNELS 3 Xrotation Yrotation Zrotation
								End Site
								{
									OFFSET 0.000000 8.688499 0.000000
								}
							}
						}
						JOINT newVegas:Left_CapeA
						{
							OFFSET 5.115639 -8.608795 -10.395809
							CHANNELS 3 Xrotation Yrotation Zrotation
							JOINT newVegas:Left_CapeA1
							{
								OFFSET 0.000000 -8.688499 0.000000
								CHANNELS 3 Xrotation Yrotation Zrotation
								End Site
								{
									OFFSET 0.000000 8.688499 0.000000
								}
							}
						}
					}
				}
				JOINT newVegas:RightShoulder
				{
					OFFSET -15.263000 10.923401 -0.547700
					CHANNELS 3 Xrotation Yrotation Zrotation
					JOINT newVegas:RightArm
					{
						OFFSET -25.438599 -2.830597 -13.032500
						CHANNELS 3 Xrotation Yrotation Zrotation
						JOINT newVegas:RightForeArm
						{
							OFFSET -29.960503 0.000000 0.000000
							CHANNELS 3 Xrotation Yrotation Zrotation
							JOINT newVegas:RightHand
							{
								OFFSET -27.849251 0.000000 0.000000
								CHANNELS 3 Xrotation Yrotation Zrotation
								JOINT newVegas:RightHandThumb1
								{
									OFFSET -4.487587 -3.305161 6.305391
									CHANNELS 3 Xrotation Yrotation Zrotation
									JOINT newVegas:RightHandThumb2
									{
										OFFSET -5.480453 -3.164139 3.164143
										CHANNELS 3 Xrotation Yrotation Zrotation
										JOINT newVegas:RightHandThumb3
										{
											OFFSET -5.159721 -2.978973 2.978967
											CHANNELS 3 Xrotation Yrotation Zrotation
											End Site
											{
												OFFSET -2.494507 5.926697 1.738678
											}
										}
									}
								}
								JOINT newVegas:RightHandIndex1
								{
									OFFSET -18.578728 -0.527832 5.208049
									CHANNELS 3 Xrotation Yrotation Zrotation
									JOINT newVegas:RightHandIndex2
									{
										OFFSET -3.192009 0.000000 0.000000
										CHANNELS 3 Xrotation Yrotation Zrotation
										JOINT newVegas:RightHandIndex3
										{
											OFFSET -3.835129 0.000000 0.000000
											CHANNELS 3 Xrotation Yrotation Zrotation
											End Site
											{
												OFFSET 0.034599 3.816971 0.371180
											}
										}
									}
								}
								JOINT newVegas:RightHandMiddle1
								{
									OFFSET -18.476105 0.000000 0.000000
									CHANNELS 3 Xrotation Yrotation Zrotation
									JOINT newVegas:RightHandMiddle2
									{
										OFFSET -3.324875 0.000000 0.000000
										CHANNELS 3 Xrotation Yrotation Zrotation
										JOINT newVegas:RightHandMiddle3
										{
											OFFSET -4.596550 0.000000 0.000000
											CHANNELS 3 Xrotation Yrotation Zrotation
											End Site
											{
												OFFSET -0.057701 4.578827 0.399218
											}
										}
									}
								}
								JOINT newVegas:RightHandRing1
								{
									OFFSET -17.732719 0.121887 -4.201567
									CHANNELS 3 Xrotation Yrotation Zrotation
									JOINT newVegas:RightHandRing2
									{
										OFFSET -2.733170 0.000000 0.000000
										CHANNELS 3 Xrotation Yrotation Zrotation
										JOINT newVegas:RightHandRing3
										{
											OFFSET -3.178268 0.000000 0.000000
											CHANNELS 3 Xrotation Yrotation Zrotation
											End Site
											{
												OFFSET -0.119102 3.170624 0.185394
											}
										}
									}
								}
								JOINT newVegas:RightHandPinky1
								{
									OFFSET -15.989624 -0.606689 -7.535461
									CHANNELS 3 Xrotation Yrotation Zrotation
									JOINT newVegas:RightHandPinky2
									{
										OFFSET -2.538986 0.000000 0.000000
										CHANNELS 3 Xrotation Yrotation Zrotation
										JOINT newVegas:RightHandPinky3
										{
											OFFSET -2.593102 0.000000 0.000000
											CHANNELS 3 Xrotation Yrotation Zrotation
											End Site
											{
												OFFSET 0.150902 2.584198 0.152708
											}
										}
									}
								}
							}
							JOINT newVegas:Right_CapeC
							{
								OFFSET -15.715958 -8.608795 -6.935905
								CHANNELS 3 Xrotation Yrotation Zrotation
								JOINT newVegas:Right_CapeC1
								{
									OFFSET 0.000000 -8.688499 0.000000
									CHANNELS 3 Xrotation Yrotation Zrotation
									End Site
									{
										OFFSET 0.000000 8.688499 0.000000
									}
								}
							}
							JOINT newVegas:Right_Sleeve
							{
								OFFSET -0.267448 -0.649994 0.577675
								CHANNELS 3 Xrotation Yrotation Zrotation
								End Site
								{
									OFFSET 0.000000 15.991302 0.000000
								}
							}
						}
						JOINT newVegas:Right_CapeA
						{
							OFFSET -5.115540 -8.608795 -10.395824
							CHANNELS 3 Xrotation Yrotation Zrotation
							JOINT newVegas:Right_CapeA1
							{
								OFFSET 0.000000 -8.688499 0.000000
								CHANNELS 3 Xrotation Yrotation Zrotation
								End Site
								{
									OFFSET 0.000000 8.688499 0.000000
								}
							}
						}
						JOINT newVegas:Right_CapeB
						{
							OFFSET -26.118187 -8.608795 -7.079266
							CHANNELS 3 Xrotation Yrotation Zrotation
							JOINT newVegas:Right_CapeB1
							{
								OFFSET 0.000000 -8.688499 0.000000
								CHANNELS 3 Xrotation Yrotation Zrotation
								End Site
								{
									OFFSET 0.000000 8.688499 0.000000
								}
							}
						}
					}
				}
				JOINT newVegas:Left_Collar
				{
					OFFSET 18.625099 8.655502 8.828100
					CHANNELS 3 Xrotation Yrotation Zrotation
					JOINT newVegas:Left_Collar1
					{
						OFFSET 14.783401 10.540405 -1.259500
						CHANNELS 3 Xrotation Yrotation Zrotation
						End Site
						{
							OFFSET 0.000000 18.199875 0.000000
						}
					}
				}
				JOINT newVegas:Collar_Back
				{
					OFFSET 0.000000 15.630707 -20.132601
					CHANNELS 3 Xrotation Yrotation Zrotation
					End Site
					{
						OFFSET 0.000000 22.523010 0.000000
					}
				}
				JOINT newVegas:Left_Peck
				{
					OFFSET 17.239599 -5.132599 25.482599
					CHANNELS 3 Xrotation Yrotation Zrotation
					End Site
					{
						OFFSET 0.000000 22.523010 0.000000
					}
				}
				JOINT newVegas:Right_Peck
				{
					OFFSET -17.239599 -5.132202 25.482599
					CHANNELS 3 Xrotation Yrotation Zrotation
					End Site
					{
						OFFSET 0.000000 22.523010 0.000000
					}
				}
				JOINT newVegas:Right_Collar
				{
					OFFSET -18.625099 8.655792 8.828100
					CHANNELS 3 Xrotation Yrotation Zrotation
					JOINT newVegas:Right_Collar1
					{
						OFFSET -14.783401 10.539993 -1.259500
						CHANNELS 3 Xrotation Yrotation Zrotation
						End Site
						{
							OFFSET 0.000000 18.199631 0.000000
						}
					}
				}
			}
		}
		JOINT newVegas:Belly
		{
			OFFSET 0.000000 -6.540398 9.014299
			CHANNELS 3 Xrotation Yrotation Zrotation
			End Site
			{
				OFFSET 0.000000 11.566666 0.000000
			}
		}
	}
	JOINT newVegas:ElvisFacialAnim_Joint
	{
		OFFSET 1.000000 -95.330101 -8.825800
		CHANNELS 3 Xrotation Yrotation Zrotation
		End Site
		{
			OFFSET 0.000000 35.315800 0.000000
		}
	}
}
MOTION
Frames: 4
Frame Time: 0.033333
-0.200953 95.109299 3.970860 -0.939233 -0.894698 -1.149571 0.000000 0.000000 0.000000 -8.017715 6.893073 6.118653 22.283619 1.966810 2.269847 -11.877265 1.493836 -8.690004 0.000000 -0.000000 0.000000 -0.000001 -0.000001 -0.000000 -0.429775 -10.764245 -7.527219 12.438621 -6.197470 -1.733312 -6.805471 -1.450712 11.204405 0.000000 -0.000003 0.000000 0.000001 -0.000001 0.000000 1.065816 -0.222090 -1.892565 -3.842173 0.073780 -0.099636 -3.842110 0.079354 -0.101336 -1.074665 -0.122021 -0.167179 -1.074662 -0.122021 -0.167178 0.000000 0.000000 0.000000 -1.074592 -0.122021 -0.167180 -1.074610 -0.122015 -0.167178 -0.000000 -0.000000 0.000000 0.000000 0.000000 0.000000 2.943226 3.598764 -19.489842 13.981065 -17.191649 -55.001184 -0.000004 -8.821658 0.000002 0.255808 -1.979849 -1.603719 -4.259451 -4.051564 21.939170 18.294691 13.388224 -14.220664 0.000001 0.000000 -0.000001 -1.881322 -2.315116 -19.330827 0.909302 3.136622 -32.326705 -0.000003 -0.000001 0.000000 0.210230 3.793545 -19.942807 0.798353 2.954266 -30.238613 -0.000001 -0.000002 -0.000002 2.017417 7.498661 -27.733391 1.001691 3.277825 -33.977876 -0.000002 -0.000001 0.000001 -6.408551 9.788516 -28.549124 0.931602 3.171520 -32.732090 -0.000001 -0.000005 -0.000002 0.000001 -0.000001 -0.000001 0.000001 -0.000001 -0.000001 0.000000 -0.000000 -0.000001 0.000001 0.000000 -0.000000 0.000001 0.000000 -0.000000 0.000001 0.000000 -0.000000 0.000001 0.000000 -0.000001 2.690947 -4.329671 13.690312 3.833194 -5.529646 68.455257 0.000001 14.391420 -0.000015 12.089437 14.495132 -0.748365 -3.436995 3.011801 -14.080153 17.425283 -14.677735 5.447106 -0.000000 -0.000001 0.000001 -1.632560 5.381379 12.050649 1.062534 -2.962996 39.448625 -0.000002 -0.000001 0.000003 -1.718307 0.626478 24.485047 0.834108 -2.661573 34.795705 0.000001 -0.000001 0.000001 0.446046 -4.245921 31.539488 0.899639 -2.753364 36.182780 0.000003 0.000002 0.000000 -10.096789 -16.487156 27.843391 0.609988 -2.306162 29.627756 -0.000002 -0.000002 0.000002 0.000001 0.000002 0.000000 -0.000000 0.000002 -0.000000 0.000001 0.000002 0.000000 -0.000000 -0.000001 0.000001 -0.000000 -0.000001 0.000001 -0.000000 -0.000001 0.000001 -0.000000 -0.000001 0.000001 -0.000000 0.000000 -0.000000 -0.000000 0.000000 -0.000000 -0.000000 0.000000 -0.000000 -0.000000 0.000000 -0.000000 -0.000000 0.000000 -0.000000 -0.000000 0.000000 -0.000000 -0.000000 0.000000 -0.000000 0.000000 -0.000000 -0.000000 0.000000 0.000000 0.000000 
-0.178318 95.076538 4.144371 -1.063387 -0.542064 -1.275009 -0.000000 0.000000 -0.000000 -8.135681 6.752518 6.091234 22.751331 1.764475 2.603068 -12.042884 1.499258 -8.685502 -0.000000 0.000001 0.000000 0.000001 0.000000 0.000000 0.402035 -11.015423 -7.435196 11.740731 -6.347157 -1.568698 -6.757227 -1.456188 11.368701 -0.000000 -0.000001 0.000000 0.000002 0.000001 -0.000001 0.927696 -0.376590 -1.774136 -3.738693 0.026874 -0.035826 -3.738495 0.031989 -0.037665 -1.025099 -0.131515 -0.155691 -1.025102 -0.131515 -0.155688 0.000001 0.000000 0.000000 -1.025100 -0.131512 -0.155689 -1.025102 -0.131520 -0.155689 -0.000000 0.000000 0.000000 0.000001 0.000000 0.000000 2.957992 3.397130 -19.865655 11.757204 -17.180728 -54.847857 0.000001 -7.093358 0.000003 1.875245 -0.627904 -1.989115 -4.259452 -4.051566 21.939170 18.129544 13.079729 -14.028468 0.000001 -0.000002 -0.000003 -1.619756 -2.240434 -18.623062 0.891991 3.109126 -32.008818 -0.000000 -0.000001 0.000001 0.267589 3.938866 -19.340101 0.782426 2.926811 -29.928106 -0.000002 -0.000001 0.000000 2.068167 7.667977 -27.050530 0.931652 3.171586 -32.732831 -0.000001 -0.000001 0.000001 -6.396050 9.778048 -28.053122 0.912976 3.142388 -32.393688 -0.000002 0.000000 0.000001 -0.000002 -0.000000 -0.000001 -0.000002 -0.000000 -0.000001 -0.000002 0.000000 -0.000001 0.000002 -0.000001 -0.000001 0.000002 -0.000001 -0.000001 0.000002 -0.000001 -0.000001 0.000002 -0.000002 -0.000002 2.701957 -4.424551 13.681439 3.839934 -4.986558 68.181530 -0.000011 14.715385 0.000032 11.650561 14.830648 -0.680072 -3.436999 3.011799 -14.080151 17.717526 -15.521852 5.935868 -0.000001 0.000002 -0.000002 -1.677135 5.480137 12.224167 1.067266 -2.968728 39.540068 -0.000001 -0.000001 -0.000002 -1.844159 0.820156 24.858917 0.828665 -2.653736 34.678288 -0.000001 -0.000001 -0.000000 0.314059 -4.039285 31.837913 0.893179 -2.744519 36.047973 0.000000 0.000002 -0.000000 -10.126569 -16.281846 28.664204 0.594551 -2.278815 29.241778 -0.000001 0.000003 0.000002 -0.000000 0.000000 -0.000000 0.000000 -0.000000 0.000000 -0.000000 -0.000000 -0.000000 -0.000001 0.000001 -0.000000 -0.000000 0.000001 -0.000000 -0.000001 0.000001 -0.000000 -0.000000 0.000001 -0.000000 0.000000 -0.000000 0.000000 0.000000 -0.000000 0.000000 0.000000 -0.000000 0.000000 0.000000 -0.000000 0.000000 0.000000 -0.000000 0.000000 0.000000 -0.000000 0.000000 0.000000 -0.000000 0.000000 -0.000000 -0.000000 -0.000000 -0.000000 0.000000 -0.000000 
-0.161307 94.994781 4.348966 -1.241210 -0.269236 -1.371187 0.000000 0.000000 0.000000 -8.298505 6.750566 6.110621 23.447102 1.431286 2.849581 -12.272211 1.516449 -8.630158 0.000000 0.000001 0.000000 0.000000 -0.000002 0.000001 -0.159774 -11.035368 -7.706196 13.162935 -6.351672 -1.453553 -6.458824 -1.486308 11.763852 0.000000 -0.000001 0.000000 -0.000000 -0.000001 0.000001 0.943540 -0.557953 -1.706327 -3.624813 -0.026512 0.015662 -3.624518 -0.021851 0.013697 -0.970620 -0.138665 -0.143235 -0.970579 -0.138665 -0.143238 0.000001 0.000000 -0.000000 -0.970566 -0.138662 -0.143237 -0.970750 -0.138673 -0.143234 -0.000000 0.000000 0.000000 0.000001 0.000000 -0.000000 2.972874 3.087623 -20.358296 9.533195 -17.511487 -54.308064 0.000002 -5.610388 0.000023 5.109675 1.717674 -2.556831 -4.259452 -4.051564 21.939169 18.055615 12.941981 -13.943286 -0.000002 -0.000000 -0.000003 -1.454705 -2.246108 -17.870423 0.865272 3.066025 -31.512714 0.000001 0.000003 0.000004 0.312881 4.061248 -18.790588 0.764471 2.895434 -29.574726 -0.000002 0.000001 -0.000002 2.054973 7.700842 -26.539129 0.885282 3.098380 -31.884891 0.000000 -0.000001 0.000001 -6.455254 9.674975 -27.547686 0.893077 3.110849 -32.028830 -0.000002 -0.000003 -0.000001 0.000003 0.000001 0.000000 0.000003 0.000001 0.000000 0.000002 0.000001 0.000000 0.000001 -0.000001 -0.000000 0.000001 -0.000002 0.000000 0.000001 -0.000001 -0.000000 0.000001 -0.000002 -0.000000 2.737883 -4.482435 13.976195 2.835695 -4.781835 67.631201 0.000005 13.481058 -0.000013 11.030738 15.279553 -0.709865 -3.436995 3.011797 -14.080153 17.749266 -15.610356 5.987874 0.000002 -0.000002 -0.000001 -1.597004 5.280137 12.053298 1.059135 -2.958867 39.382898 -0.000001 -0.000000 0.000001 -1.755649 0.764151 24.253136 0.820695 -2.642194 34.505853 -0.000000 0.000001 0.000001 0.362600 -4.104815 31.312162 0.862998 -2.702612 35.412892 -0.000000 0.000001 -0.000001 -10.064011 -16.348252 28.919164 0.574294 -2.242275 28.728144 -0.000000 0.000001 0.000001 0.000001 -0.000000 0.000001 0.000001 -0.000001 0.000000 0.000001 -0.000001 0.000001 -0.000000 0.000001 0.000001 -0.000000 0.000001 0.000001 -0.000000 0.000001 0.000001 -0.000000 0.000001 0.000001 -0.000002 -0.000000 0.000000 -0.000002 -0.000000 0.000000 -0.000002 -0.000000 0.000000 -0.000002 -0.000000 0.000000 -0.000002 -0.000000 0.000000 -0.000002 -0.000000 0.000000 -0.000002 -0.000000 0.000000 -0.000000 0.000000 -0.000000 0.000000 0.000000 0.000000 
-0.174244 94.960304 4.565309 -1.448987 -0.113692 -1.438441 -0.000000 0.000000 0.000000 -8.406364 6.868375 6.208552 23.925224 1.096874 2.952161 -12.017645 1.508699 -8.531261 -0.000000 0.000001 0.000000 -0.000000 0.000001 0.000000 -1.610276 -10.895782 -8.234043 15.525336 -6.211990 -1.359938 -5.208907 -1.480474 12.298500 0.000001 0.000000 0.000000 0.000002 -0.000002 -0.000000 1.154534 -0.862320 -1.676532 -3.512585 -0.112180 0.061542 -3.512248 -0.107943 0.059662 -0.933130 -0.131022 -0.150125 -0.933125 -0.131023 -0.150124 -0.000000 0.000000 0.000000 -0.933063 -0.131021 -0.150125 -0.933145 -0.131019 -0.150124 -0.000001 0.000000 0.000000 -0.000000 0.000000 0.000000 2.929247 2.420753 -20.784882 8.770236 -19.076454 -53.002326 0.000005 -5.392693 -0.000003 8.763084 4.267066 -3.978836 -4.259450 -4.051567 21.939165 18.116886 13.056812 -14.014345 0.000003 -0.000001 -0.000004 -1.408303 -2.296529 -17.383578 0.846849 3.035823 -31.166696 -0.000003 -0.000002 0.000004 0.347698 4.162323 -18.544657 0.753193 2.875473 -29.350289 -0.000002 -0.000005 -0.000001 2.014608 7.639777 -26.377161 0.879876 3.089673 -31.784552 -0.000001 -0.000001 -0.000002 -6.513843 9.584950 -27.304637 0.881777 3.092742 -31.820144 -0.000001 -0.000003 -0.000002 -0.000000 -0.000000 -0.000000 -0.000000 -0.000000 -0.000000 -0.000001 0.000000 0.000000 0.000002 -0.000001 -0.000001 0.000002 0.000000 -0.000001 0.000002 -0.000001 -0.000001 0.000002 0.000000 -0.000002 2.754463 -4.322522 14.342554 0.915523 -4.924487 67.138984 0.000000 10.981372 0.000011 11.032457 15.029150 -0.892079 -3.436999 3.011802 -14.080153 17.523909 -15.025462 5.641564 0.000001 -0.000001 0.000001 -1.459872 5.037498 11.555090 1.040609 -2.936183 39.022599 -0.000000 0.000001 0.000002 -1.577710 0.592998 23.208646 0.813869 -2.632233 34.357457 0.000001 -0.000001 0.000002 0.504129 -4.325490 30.457159 0.823656 -2.646481 34.569879 0.000002 0.000001 -0.000000 -9.820992 -16.633444 28.744260 0.561810 -2.219384 28.407713 -0.000003 0.000003 -0.000000 0.000001 -0.000000 0.000001 0.000001 -0.000001 0.000001 0.000001 -0.000001 0.000001 0.000000 0.000000 0.000000 0.000000 0.000000 0.000000 0.000000 0.000000 0.000000 0.000000 -0.000000 0.000000 -0.000001 0.000000 0.000000 -0.000001 0.000000 0.000000 -0.000001 0.000000 0.000000 -0.000001 0.000000 0.000000 -0.000001 0.000000 0.000000 -0.000001 0.000000 0.000000 -0.000001 0.000000 0.000000 -0.000000 -0.000000 -0.000000 -0.000000 0.000000 0.000000 
